<svg id="图层_1" data-name="图层 1" xmlns="http://www.w3.org/2000/svg" viewBox="0 0 157.28 153.82"><defs><style>.cls-1{fill:none;stroke:#9242eb;stroke-miterlimit:10;stroke-width:4px;}.cls-2{fill:#9242eb;}</style></defs><title>灵犀智学logo图标</title><ellipse class="cls-1" cx="78.64" cy="76.91" rx="76.64" ry="78.11"/><path class="cls-2" d="M44.73,40.05H41.59L35.32,88.28a.07.07,0,0,0,0,0c-.17,1.19-3.61,22,10.5,25.56a15.78,15.78,0,0,0,3.29.35c5.52-.06,20-1.49,38.4-13.14L80.54,90S59.15,102.17,54,87.74a14.5,14.5,0,0,1-.59-7.1l4.93-32.12s1.73-7.46-3.87-8.41Z"/><path class="cls-2" d="M65.61,55.09l34.7,54.57s2.46,4.66,9.42,4.58l12.73-.43-35-52.58S81.6,52.33,65.61,55.09Z"/><path class="cls-2" d="M88.6,54s9.14-17.25,25.54-14c0,0,9.51,1.61,7.08,15.51,0,0-4.52,18.86-11.54,25.08a1.72,1.72,0,0,1-2.58-.33l-5.85-8.76a1.42,1.42,0,0,1-.07-1.45c.29-.54.76-1.48,1.48-3.13C102.66,66.91,108.37,46,88.6,54Z"/></svg>