<svg id="图层_1" data-name="图层 1" xmlns="http://www.w3.org/2000/svg" viewBox="0 0 153.82 153.82">
  <defs>
    <style>
      .cls-1{fill:#9242eb;}
      .cls-2{fill:#fff;}
    </style>
  </defs>
  <title>灵犀智学logo_图标</title>
  <circle class="cls-1" cx="76.91" cy="76.91" r="76.91"/>
  <path class="cls-2" d="M42.88,40.61H39.73L33.43,88.1a.09.09,0,0,1,0,.05c-.16,1.18-3.61,21.66,10.54,25.17a16,16,0,0,0,3.31.35c5.54-.06,20.1-1.47,38.53-12.94l-7-10.9s-21.47,12-26.62-2.26a14.06,14.06,0,0,1-.59-7l5-31.62s1.74-7.35-3.88-8.29Z"/>
  <path class="cls-2" d="M63.83,55.43l34.83,53.73s2.47,4.58,9.45,4.51l12.78-.42L85.8,61.47S79.88,52.7,63.83,55.43Z"/>
  <path class="cls-2" d="M86.91,54.36s9.17-17,25.63-13.81c0,0,9.54,1.59,7.1,15.27,0,0-4.53,18.58-11.58,24.7a1.75,1.75,0,0,1-2.59-.32L99.6,71.57a1.37,1.37,0,0,1-.07-1.42c.3-.53.77-1.47,1.49-3.08C101,67.07,106.75,46.49,86.91,54.36Z"/>
</svg>
