<?xml version="1.0" encoding="UTF-8" standalone="no"?>
<svg
   id="图层_1"
   data-name="图层 1"
   viewBox="0 0 566.93 153.82"
   version="1.1"
   sodipodi:docname="logo_text_serif_editable.svg"
   xmlns:inkscape="http://www.inkscape.org/namespaces/inkscape"
   xmlns:sodipodi="http://sodipodi.sourceforge.net/DTD/sodipodi-0.dtd"
   xmlns="http://www.w3.org/2000/svg"
   xmlns:svg="http://www.w3.org/2000/svg">
  <sodipodi:namedview
     id="namedview3"
     pagecolor="#ffffff"
     bordercolor="#000000"
     borderopacity="0.25"
     inkscape:showpageshadow="2"
     inkscape:pageopacity="0.0"
     inkscape:pagecheckerboard="0"
     inkscape:deskcolor="#d1d1d1" />
  <defs
     id="defs1">
    <style
       id="style1">
      .cls-1{fill:#9242eb;}
      .cls-2{fill:#fff;}
      .logo-text{fill:#0c0c0c;font-family:'Noto Serif CJK SC','Source Han Serif SC','思源宋体','Songti SC','Microsoft YaHei',serif;font-size:92px;font-weight:700;letter-spacing:0px;}
    </style>
  </defs>
  <title
     id="title1">灵犀智学logo</title>
  <path
     id="circle1"
     class="cls-1"
     style="fill:#9242eb"
     d="M 153.82001,76.910004 A 76.910004,76.910004 0 0 1 76.910004,153.82001 76.910004,76.910004 0 0 1 0,76.910004 76.910004,76.910004 0 0 1 76.910004,0 76.910004,76.910004 0 0 1 153.82001,76.910004 Z" />
  <path
     class="cls-2"
     d="M42.88,40.61H39.73L33.43,88.1a.09.09,0,0,1,0,.05c-.16,1.18-3.61,21.66,10.54,25.17a16,16,0,0,0,3.31.35c5.54-.06,20.1-1.47,38.53-12.94l-7-10.9s-21.47,12-26.62-2.26a14.06,14.06,0,0,1-.59-7l5-31.62s1.74-7.35-3.88-8.29Z"
     id="path1" />
  <path
     class="cls-2"
     d="M63.83,55.43l34.83,53.73s2.47,4.58,9.45,4.51l12.78-.42L85.8,61.47S79.88,52.7,63.83,55.43Z"
     id="path2" />
  <path
     class="cls-2"
     d="M86.91,54.36s9.17-17,25.63-13.81c0,0,9.54,1.59,7.1,15.27,0,0-4.53,18.58-11.58,24.7a1.75,1.75,0,0,1-2.59-.32L99.6,71.57a1.37,1.37,0,0,1-.07-1.42c.3-.53.77-1.47,1.49-3.08C101,67.07,106.75,46.49,86.91,54.36Z"
     id="path3" />
  <path
     d="m 217.76,77.672 -1.288,-0.092 c -1.104,5.612 -6.532,10.764 -10.396,12.604 -2.852,1.656 -4.6,4.508 -3.404,7.636 1.472,3.496 6.532,4.048 9.568,1.748 4.324,-3.22 7.912,-10.856 5.52,-21.896 z M 256.4,53.844 h -47.472 l 0.828,2.668 H 256.4 v 10.764 h -51.06 l 0.828,2.576 H 256.4 v 4.324 h 1.932 c 3.68,0 9.384,-2.024 9.476,-2.668 v -26.68 c 1.84,-0.46 3.128,-1.196 3.68,-1.932 l -10.856,-8.28 -5.152,5.704 h -49.864 l 0.828,2.668 H 256.4 Z m 17.48,31.832 -12.696,-8.832 c -2.76,4.876 -8.556,12.788 -13.8,18.584 -3.22,-4.048 -5.152,-9.016 -6.256,-15.088 l 0.276,-5.52 c 2.024,-0.276 2.944,-1.196 3.22,-2.484 l -14.996,-1.288 c -0.276,21.988 0.552,37.444 -34.868,49.128 l 0.644,1.38 c 34.96,-7.268 42.78,-18.676 44.988,-33.856 2.852,17.388 10.028,28.52 31.74,33.488 0.736,-6.164 3.956,-9.292 9.476,-10.488 l 0.092,-1.104 c -16.284,-2.024 -26.404,-5.888 -32.66,-12.236 7.912,-3.22 15.824,-7.36 21.344,-10.764 2.116,0.46 3.036,-0.092 3.496,-0.92 z m 37.628,-26.22 -0.644,0.736 c 3.128,2.208 8.004,5.98 10.396,8.832 8.648,2.668 11.868,-12.052 -9.752,-9.568 z M 296.88,39.676 v 27.692 c 0,18.032 -0.828,37.72 -10.396,53.176 l 1.012,0.736 C 306.356,107.02 307.46,84.664 307.46,67.276 V 55.04 h 48.208 v 2.76 h 0.644 c -1.748,2.576 -5.244,7.268 -8.556,10.488 L 343.8,68.012 v -7.636 c 1.932,-0.276 2.484,-1.104 2.576,-2.024 l -13.064,-1.196 v 11.592 c -10.304,2.116 -20.056,4.048 -24.656,4.6 l 5.428,9.844 c 0.368,-0.092 0.736,-0.276 1.012,-0.644 -1.472,6.716 -3.772,13.432 -5.98,17.756 l 1.104,0.828 c 3.312,-2.116 6.532,-4.968 9.476,-8.28 h 13.616 v 9.384 h -27.416 l 0.736,2.668 h 26.68 v 16.468 h 1.932 c 3.956,0 8.556,-1.932 8.556,-2.668 v -13.8 h 27.416 c 1.288,0 2.208,-0.46 2.484,-1.472 -3.588,-3.404 -9.476,-8.28 -9.476,-8.28 l -5.336,7.084 H 343.8 v -9.384 h 22.172 c 1.288,0 2.3,-0.46 2.484,-1.472 -3.404,-3.22 -9.2,-8.004 -9.2,-8.004 l -5.152,6.808 H 343.8 V 84.02 c 2.208,-0.276 2.852,-1.104 3.036,-2.3 l -13.524,-1.196 v 9.66 h -11.5 c 0.92,-1.196 1.748,-2.392 2.576,-3.68 2.024,0 3.22,-0.736 3.588,-1.84 L 316.2,80.892 c 7.268,-3.772 12.88,-6.992 17.112,-9.476 v 8.28 h 1.932 c 3.864,0 8.556,-1.564 8.556,-2.208 v -6.072 l 16.928,10.58 c 7.912,0.644 8.924,-9.752 -8.372,-13.064 4.692,-1.472 9.292,-3.312 11.868,-4.6 1.564,0.276 2.668,0.184 3.128,-0.644 L 356.772,57.8 h 0.644 c 3.128,0 8.188,-1.564 8.28,-2.208 V 44.92 c 1.932,-0.368 3.22,-1.196 3.864,-1.932 l -10.12,-7.452 -4.692,5.06 H 309.116 L 296.88,36.18 Z m 10.58,12.696 v -9.2 h 48.208 v 9.2 z M 390.444,34.8 c -1.196,8.556 -3.864,16.836 -7.176,22.356 l 1.196,0.92 c 3.956,-2.3 7.636,-5.612 10.672,-9.752 h 3.588 c -0.092,3.772 -0.184,7.268 -0.552,10.58 H 379.68 l 0.736,2.576 h 17.388 c -1.472,9.016 -5.704,16.376 -18.308,22.54 l 0.828,1.288 c 13.984,-4.232 21.068,-9.844 24.748,-16.836 3.956,3.22 8.28,7.728 10.212,11.776 9.108,4.14 13.34,-12.604 -9.108,-14.26 0.552,-1.472 1.012,-2.944 1.38,-4.508 h 16.376 c 1.288,0 2.208,-0.46 2.484,-1.472 -3.496,-3.312 -9.384,-7.912 -9.384,-7.912 l -5.244,6.808 h -3.772 c 0.552,-3.312 0.828,-6.808 1.012,-10.58 h 13.524 c 1.288,0 2.3,-0.46 2.484,-1.472 C 421.54,43.54 415.56,38.94 415.56,38.94 l -5.152,6.808 h -13.432 c 1.012,-1.656 2.024,-3.404 2.944,-5.244 2.024,0 3.128,-0.828 3.496,-1.932 z m 48.668,65.872 v 11.684 h -32.568 v -11.684 z m 0,-2.668 H 406.544 V 87.056 h 32.568 z m -11.96,-52.9 v 34.868 h 1.472 c 4.324,0 8.74,-2.3 8.74,-3.22 V 72.06 h 13.248 v 6.072 h 1.748 c 3.404,0 8.464,-1.84 8.556,-2.484 V 49.52 c 1.932,-0.368 3.22,-1.196 3.772,-1.932 l -10.12,-7.728 -4.876,5.244 h -11.96 l -10.58,-4.232 z m 23.46,24.38 H 437.364 V 47.772 h 13.248 z M 395.964,84.48 v 36.616 h 1.564 c 4.416,0 9.016,-2.392 9.016,-3.496 v -2.576 h 32.568 v 5.612 h 1.84 c 3.496,0 8.832,-1.932 8.924,-2.668 V 88.804 c 1.84,-0.368 3.036,-1.196 3.588,-1.932 l -10.396,-7.82 -4.876,5.428 H 407.28 l -11.316,-4.508 z m 89.7,-48.484 -0.828,0.552 c 3.312,4.14 6.808,10.488 7.452,16.1 9.568,7.36 18.768,-11.684 -6.624,-16.652 z m 20.976,-1.196 -0.828,0.46 c 2.392,4.324 4.692,10.488 4.692,16.1 9.016,8.464 20.424,-9.568 -3.864,-16.56 z m 26.404,0.092 c -2.024,5.888 -5.612,14.26 -8.924,20.24 h -39.468 c -0.46,-2.208 -1.288,-4.692 -2.484,-7.268 l -1.288,0.092 c 0.828,6.348 -2.392,12.144 -5.888,14.26 -2.852,1.472 -4.784,4.048 -3.68,7.268 1.288,3.312 5.428,4.048 8.648,2.024 3.312,-2.024 5.888,-6.808 5.152,-13.708 h 56.396 c -0.92,3.22 -2.392,7.176 -3.588,10.028 l -6.164,-5.888 -6.256,5.888 h -38.272 l 0.828,2.576 h 36.708 c -2.392,3.128 -5.612,6.9 -8.464,9.844 l -7.912,-0.736 v 9.66 h -36.616 l 0.736,2.576 h 35.88 v 15.64 c 0,1.288 -0.552,1.84 -2.116,1.84 -2.392,0 -16.192,-0.92 -16.192,-0.92 v 1.196 c 6.072,1.012 8.648,2.208 10.672,3.956 1.932,1.748 2.576,4.324 3.036,7.82 14.076,-1.196 16.008,-5.612 16.008,-13.248 V 91.748 h 34.592 c 1.38,0 2.392,-0.46 2.668,-1.38 -4.14,-3.864 -11.224,-9.292 -11.224,-9.292 l -6.164,8.096 h -19.872 v -5.98 c 2.024,-0.368 2.944,-1.012 3.128,-2.392 L 520.9,80.616 c 5.98,-2.392 12.788,-5.428 17.296,-7.82 2.024,-0.184 2.944,-0.368 3.68,-1.196 l -2.944,-2.76 c 5.06,-2.208 11.5,-5.796 15.364,-8.648 1.932,-0.092 2.944,-0.276 3.588,-1.196 l -10.488,-9.936 -6.072,6.072 h -13.892 c 5.98,-4.14 12.052,-9.568 16.008,-13.616 2.116,0.276 3.22,-0.46 3.68,-1.472 z"
     id="text3"
     class="logo-text"
     style="font-weight:700;font-size:92px;font-family:'Noto Serif CJK SC', 'Source Han Serif SC', '思源宋体', 'Songti SC', 'Microsoft YaHei', serif;letter-spacing:0px;fill:#0c0c0c"
     aria-label="灵犀智学" />
</svg>
